# xmcd
# Track frame offsets:
# 150
# 16985
# 30210
# 51305
# 66715
# 82897
# 99227
# 116720
# 137082
# 151782
# 167777
# 178097
# 189300
# 200370
# 215010
# 231950
# 249420
# 265217
# 279012
# 291702
#
# Disc length: 4132 seconds
# Revision: 0
# Processed by: cddbd v1.4PL0 Copyright (c) Steve Scherf et al.
# Submitted via: VisiTrax 2.9.5.180 - For more info visit www.synapsa.com
#
DISCID=1d102214
DTITLE=Michael Vraa - So Far
DYEAR=1995
DGENRE=
TTITLE0=Back on the wave
TTITLE1=Try try try
TTITLE2=Used to be loved
TTITLE3=Monsters holiday
TTITLE4=Niki Hokey
TTITLE5=Honky tonk rag
TTITLE6=Americana
TTITLE7=My own way to rock
TTITLE8=Boot scoot boogie
TTITLE9=When you walk
TTITLE10=Boogie man
TTITLE11=Sixteen candels
TTITLE12=Good old country music
TTITLE13=Heart broken woman
TTITLE14=Tulsa time
TTITLE15=Lovely as you are
TTITLE16=By the time I get to Phoenix
TTITLE17=Back yard
TTITLE18=My mother's eyes
TTITLE19=Lightning
EXTD=
EXTT0=
EXTT1=
EXTT2=
EXTT3=
EXTT4=
EXTT5=
EXTT6=
EXTT7=
EXTT8=
EXTT9=
EXTT10=
EXTT11=
EXTT12=
EXTT13=
EXTT14=
EXTT15=
EXTT16=
EXTT17=
EXTT18=
EXTT19=
PLAYORDER=
